# xmcd
#
# Track frame offsets:
#	150
#	18655
#	30650
#	41725
#	61688
#	76556
#	91539
#	106144
#	123169
#	137582
#	153182
#	168540
#	184918
#	199821
#	213054
#	232014
#	247169
#	262947
#	274725
#	287075
#	300673
#
# Disc length: 4179 seconds
#
# Revision: 1
# Processed by: cddbd v1.5.2PL0 Copyright (c) Steve Scherf et al.
# Submitted via: audiograbber 1.83.01
#
DISCID=12105115
DTITLE=Various Artist - Halland's Country Hits Volume 2
DYEAR=1900
DGENRE=
TTITLE0=Earl Thomas Conlee - Somewhere Between Right And Wrong
TTITLE1=Rob Crosby - Love Will Bring Her Around
TTITLE2=Rodney Crowell - Above And Beyond
TTITLE3=Rodney Crowell - After All This Time
TTITLE4=Rodney Crowell - I Couldn't Leave You If I Tried
TTITLE5=Rodney Crowell - Lovin' All Night
TTITLE6=Rodney Crowell - She's Crazy For Leaving
TTITLE7=Billy Ray Cyrus - Could've Been Me
TTITLE8=Davis Daniel - Fighting Fire With Fire
TTITLE9=Charlie Daniels Band - Boogie Woogie Fiddle Country Blue
TTITLE10=Charlie Daniels Band - Simple Man
TTITLE11=Charlie Daniels Band - The Devil Went Down To Georgia
TTITLE12=Mac Davis - I Never Made Love
TTITLE13=Desert Rose Band - She Don't Love Nobody
TTITLE14=Diamond Rio - Mama Don't Forget To Pray For Me
TTITLE15=Joe Diffie - Home
TTITLE16=Joe Diffie - Next Thing Smokin'
TTITLE17=Holly Dunn - Are You Ever Gonna Love Me
TTITLE18=Holly Dunn - There Goes My Heart Again
TTITLE19=Skip Ewing - It's You Again
TTITLE20=Exile - Given Me One More Chance
EXTD=
EXTT0=
EXTT1=
EXTT2=
EXTT3=
EXTT4=
EXTT5=
EXTT6=
EXTT7=
EXTT8=
EXTT9=
EXTT10=
EXTT11=
EXTT12=
EXTT13=
EXTT14=
EXTT15=
EXTT16=
EXTT17=
EXTT18=
EXTT19=
EXTT20=
PLAYORDER=
